<?xml version="1.0" encoding="utf-8"?>
<svg
      id="door-svg"
      xmlns="http://www.w3.org/2000/svg"
      xmlns:xlink="http://www.w3.org/1999/xlink"
	  xmlns:bx="https://boxy-svg.com"
      x="0px"
      y="0px"
      viewBox="0 0 625 300"
      xml:space="preserve"
    >
  <defs>
	<style>
		#door-svg #door1 {
		  animation: slide1 3.5s;
		  animation-fill-mode: forwards;
		}
		#door-svg #door2 {
		  animation: slide2 3.5s;
		  animation-fill-mode: forwards;
		}
		#door-svg #door3 {
		  animation: slide3 3.5s;
		  animation-fill-mode: forwards;
		}
		#door-svg #door4 {
		  animation: slide4 3.5s;
		  animation-fill-mode: forwards;
		}
		#door-svg #door5 {
		  animation: slide5 3.5s;
		  animation-fill-mode: forwards;
		}
		#door-svg #door6 {
		  animation: slide6 3.5s;
		  animation-fill-mode: forwards;
		}
		@keyframes slide1 {
		  0% {
			transform: translateX(-35px);
		  }
		  100% {
			transform: translateX(-150px);
		  }
		}
		@keyframes slide2 {
		  0% {
			transform: translateX(70px);
		  }
		  100% {
			transform: translateX(-150px);
		  }
		}
		@keyframes slide3 {
		  0% {
			transform: translateX(175px);
		  }
		  100% {
			transform: translateX(-150px);
		  }
		}
		@keyframes slide4 {
		  0% {
			transform: translateX(325px);
		  }
		  100% {
			transform: translateX(590px);
		  }
		}
		@keyframes slide5 {
		  0% {
			transform: translateX(430px);
		  }
		  100% {
			transform: translateX(590px);
		  }
		}
		@keyframes slide6 {
		  0% {
			transform: translateX(535px);
		  }
		  100% {
			transform: translateX(590px);
		  }
		}
    </style>
	<path id="text-path-0" d="M 235 150 Q 312.5 112.5 425 150"/>
    <style bx:fonts="Allerta Stencil">@import url(https://fonts.googleapis.com/css2?family=Allerta+Stencil%3Aital%2Cwght%400%2C400&amp;display=swap);</style>
    <pattern id="pattern-0-1" patternTransform="matrix(1, 0, 0, 1, 62.5, 35)" xlink:href="#pattern-0"/>
    <pattern x="0" y="0" width="25" height="25" patternUnits="userSpaceOnUse" viewBox="0 0 100 100" id="pattern-0">
      <path id="path0" fill="#848c9c" fill-rule="evenodd" style="" d="M 0 0 L 0 100 L 100 100 L 100 0"/>
      <path d="M 0 10.85 L -0.5 10.85 L -0.5 -0.5 L 22.104 -0.5 L 22.186 -0.1 L 22.232 0.126 C 22.26 0.268 22.308 0.632 22.338 0.933 C 22.363 1.189 22.425 1.467 22.488 1.574 C 22.573 1.735 22.708 1.991 22.788 2.14 C 22.879 2.341 23.363 2.77 24.137 3.351 C 24.382 3.541 24.864 4.059 25.195 4.492 C 25.773 5.256 26.225 5.695 27.124 6.367 C 27.46 6.623 28.007 7.19 28.33 7.617 C 29.027 8.552 29.186 8.712 30.039 9.339 C 30.528 9.704 31.083 10.254 31.478 10.765 C 32.12 11.607 32.476 11.958 33.391 12.661 C 33.767 12.954 34.376 13.579 34.735 14.042 C 35.075 14.486 35.697 15.111 36.248 15.563 C 36.802 16.019 37.498 16.717 37.788 17.102 C 38.272 17.758 38.736 18.203 39.624 18.867 C 39.96 19.123 40.507 19.69 40.83 20.117 C 41.527 21.052 41.686 21.212 42.539 21.839 C 43.028 22.204 43.583 22.754 43.978 23.265 C 44.62 24.107 44.976 24.458 45.891 25.161 C 46.267 25.454 46.876 26.079 47.235 26.542 C 47.575 26.986 48.197 27.611 48.748 28.063 C 49.302 28.519 49.998 29.217 50.288 29.602 C 50.772 30.258 51.236 30.703 52.124 31.367 C 52.46 31.623 53.009 32.189 53.33 32.617 C 54.029 33.549 54.187 33.712 55.036 34.337 C 55.465 34.656 56.044 35.21 56.311 35.555 C 57.012 36.481 57.439 36.921 58.236 37.534 C 58.725 37.915 59.339 38.532 59.73 39.036 C 60.075 39.486 60.694 40.109 61.248 40.563 C 61.802 41.019 62.498 41.717 62.788 42.102 C 63.272 42.758 63.736 43.203 64.624 43.867 C 64.96 44.123 65.507 44.69 65.83 45.117 C 66.527 46.052 66.686 46.212 67.539 46.839 C 68.028 47.204 68.583 47.754 68.978 48.265 C 69.62 49.107 69.976 49.458 70.891 50.161 C 71.267 50.454 71.876 51.079 72.235 51.542 C 72.575 51.986 73.197 52.611 73.748 53.063 C 74.302 53.519 74.998 54.217 75.288 54.602 C 75.772 55.258 76.236 55.703 77.124 56.367 C 77.46 56.623 78.007 57.19 78.33 57.617 C 79.027 58.552 79.186 58.712 80.039 59.339 C 80.528 59.703 81.083 60.254 81.478 60.765 C 82.12 61.607 82.476 61.958 83.391 62.661 C 83.767 62.954 84.376 63.579 84.735 64.041 C 85.075 64.485 85.697 65.111 86.248 65.563 C 86.802 66.019 87.498 66.717 87.788 67.102 C 88.272 67.758 88.736 68.203 89.624 68.867 C 89.96 69.123 90.507 69.69 90.83 70.117 C 91.527 71.052 91.686 71.212 92.539 71.839 C 93.028 72.203 93.583 72.754 93.978 73.265 C 94.618 74.104 94.958 74.44 95.925 75.191 C 96.318 75.5 96.899 76.098 97.207 76.508 C 97.98 77.594 98.47 77.844 99.9 77.895 C 100.043 77.946 100.257 78.056 100.306 78.132 C 100.332 78.173 100.361 78.244 100.371 78.278 C 100.385 78.322 100.398 78.39 100.405 78.444 C 100.416 78.535 100.427 78.677 100.436 78.856 C 100.452 79.206 100.465 79.762 100.475 80.579 C 100.493 82.211 100.5 84.914 100.5 89.2 L 100.5 100.5 L 77.9 100.5 L 77.9 99.65 C 77.9 99.416 77.902 99.367 77.892 99.307 C 77.879 99.231 77.847 99.132 77.758 98.829 C 77.575 98.156 77.348 97.875 76.479 97.191 C 76.011 96.816 75.397 96.209 75.124 95.851 C 74.477 94.993 74.109 94.623 73.267 93.979 C 72.713 93.551 72.199 93.022 71.735 92.401 C 71.272 91.774 70.927 91.429 70.303 90.968 C 69.79 90.585 69.16 89.993 68.888 89.642 C 68.188 88.718 67.773 88.293 66.937 87.643 C 66.442 87.254 65.835 86.648 65.519 86.228 C 64.978 85.496 64.596 85.121 63.766 84.5 C 63.418 84.236 62.9 83.717 62.626 83.357 C 61.979 82.494 61.612 82.124 60.767 81.479 C 60.213 81.052 59.699 80.522 59.235 79.901 C 58.772 79.274 58.427 78.929 57.8 78.467 C 57.139 77.971 56.653 77.491 56.141 76.824 C 55.697 76.24 55.23 75.77 54.608 75.284 C 54.071 74.86 53.398 74.211 53.123 73.851 C 52.481 72.998 52.205 72.719 51.418 72.125 C 50.967 71.781 50.371 71.185 50.008 70.716 C 49.372 69.882 49.004 69.52 48.118 68.854 C 47.701 68.536 47.15 67.957 46.732 67.398 C 46.271 66.775 45.925 66.428 45.302 65.968 C 44.79 65.584 44.16 64.994 43.888 64.642 C 43.188 63.718 42.772 63.293 41.937 62.643 C 41.442 62.254 40.835 61.648 40.519 61.228 C 39.978 60.495 39.597 60.121 38.764 59.498 C 38.412 59.231 37.84 58.646 37.502 58.208 C 36.872 57.382 36.502 57.019 35.618 56.354 C 35.201 56.036 34.65 55.457 34.232 54.898 C 33.771 54.275 33.426 53.928 32.803 53.468 C 32.289 53.085 31.66 52.493 31.388 52.142 C 30.688 51.218 30.272 50.793 29.437 50.143 C 28.942 49.754 28.335 49.148 28.019 48.728 C 27.478 47.996 27.096 47.621 26.266 47 C 25.918 46.737 25.4 46.217 25.126 45.857 C 24.479 44.994 24.112 44.624 23.267 43.979 C 22.713 43.552 22.199 43.022 21.735 42.401 C 21.272 41.774 20.927 41.429 20.303 40.968 C 19.79 40.585 19.16 39.993 18.888 39.642 C 18.188 38.718 17.772 38.293 16.937 37.643 C 16.442 37.254 15.835 36.648 15.519 36.228 C 14.978 35.496 14.596 35.121 13.766 34.5 C 13.418 34.237 12.9 33.717 12.626 33.357 C 11.979 32.494 11.612 32.124 10.767 31.479 C 10.213 31.052 9.699 30.522 9.235 29.901 C 8.771 29.274 8.427 28.929 7.803 28.468 C 7.29 28.085 6.66 27.493 6.388 27.142 C 5.688 26.218 5.272 25.793 4.437 25.143 C 3.938 24.751 3.338 24.151 3.02 23.728 C 2.453 22.955 2.242 22.751 1.754 22.549 C 1.371 22.374 1.016 22.306 0.075 22.21 C -0.063 22.154 -0.265 22.041 -0.31 21.967 C -0.335 21.927 -0.363 21.858 -0.372 21.825 C -0.385 21.781 -0.398 21.714 -0.405 21.66 C -0.417 21.568 -0.427 21.425 -0.436 21.245 C -0.452 20.893 -0.465 20.333 -0.475 19.511 C -0.484 18.69 -0.491 17.6 -0.494 16.178 C -0.496 15.468 -0.498 14.673 -0.499 13.788 C -0.499 13.345 -0.5 12.88 -0.5 12.391 C -0.5 11.901 -0.5 10.85 -0.5 10.85 C -0.5 10.85 -0.25 10.85 0 10.85 Z M 0.5 12.39 C 0.501 12.879 0.501 13.345 0.501 13.787 C 0.502 14.672 0.504 15.465 0.506 16.176 C 0.51 17.596 0.516 18.682 0.525 19.5 C 0.535 20.316 0.547 20.858 0.563 21.198 C 0.564 21.22 0.565 21.24 0.566 21.26 C 1.309 21.351 1.742 21.457 2.158 21.635 C 2.781 21.925 3.191 22.287 3.824 23.132 C 4.092 23.499 4.599 24.003 5.053 24.355 C 5.938 25.049 6.443 25.565 7.184 26.537 C 7.4 26.826 7.93 27.319 8.399 27.666 C 9.079 28.175 9.526 28.622 10.037 29.305 C 10.459 29.876 10.876 30.306 11.375 30.685 C 12.272 31.376 12.733 31.841 13.425 32.755 C 13.653 33.063 14.072 33.483 14.365 33.7 C 15.247 34.364 15.73 34.842 16.321 35.631 C 16.589 35.996 17.102 36.506 17.553 36.855 C 18.437 37.549 18.944 38.066 19.684 39.037 C 19.9 39.326 20.43 39.819 20.899 40.166 C 21.579 40.675 22.026 41.122 22.537 41.805 C 22.959 42.376 23.376 42.806 23.875 43.185 C 24.772 43.876 25.233 44.341 25.925 45.255 C 26.153 45.563 26.572 45.983 26.865 46.2 C 27.747 46.864 28.23 47.342 28.821 48.131 C 29.089 48.496 29.602 49.006 30.053 49.355 C 30.937 50.049 31.443 50.565 32.184 51.537 C 32.4 51.826 32.929 52.319 33.399 52.665 C 34.078 53.173 34.527 53.623 35.034 54.302 C 35.414 54.815 35.865 55.292 36.22 55.556 C 37.154 56.263 37.62 56.722 38.296 57.6 C 38.594 57.992 39.07 58.481 39.364 58.698 C 40.247 59.364 40.73 59.84 41.321 60.631 C 41.589 60.996 42.102 61.506 42.553 61.855 C 43.437 62.549 43.943 63.065 44.684 64.037 C 44.899 64.326 45.43 64.818 45.9 65.166 C 46.578 65.674 47.027 66.123 47.534 66.802 C 47.914 67.315 48.365 67.792 48.72 68.056 C 49.656 68.764 50.12 69.222 50.802 70.108 C 51.121 70.527 51.623 71.029 52.022 71.328 C 52.863 71.969 53.235 72.346 53.921 73.248 C 54.143 73.549 54.727 74.106 55.226 74.498 C 55.894 75.025 56.449 75.584 56.935 76.217 C 57.402 76.832 57.789 77.215 58.397 77.665 C 59.079 78.175 59.526 78.622 60.037 79.305 C 60.459 79.876 60.876 80.306 61.375 80.685 C 62.272 81.376 62.733 81.841 63.425 82.755 C 63.653 83.063 64.072 83.483 64.365 83.7 C 65.247 84.364 65.73 84.842 66.321 85.631 C 66.589 85.996 67.102 86.506 67.553 86.855 C 68.437 87.549 68.944 88.066 69.684 89.037 C 69.9 89.326 70.43 89.819 70.899 90.166 C 71.579 90.675 72.026 91.122 72.537 91.805 C 72.959 92.376 73.376 92.806 73.875 93.185 C 74.768 93.873 75.231 94.339 75.922 95.248 C 76.147 95.551 76.674 96.069 77.103 96.409 C 78.057 97.18 78.451 97.71 78.716 98.545 C 78.804 98.838 78.854 98.996 78.878 99.141 C 78.898 99.26 78.9 99.365 78.9 99.5 L 99.5 99.5 L 99.5 89.2 C 99.5 84.916 99.494 82.218 99.475 80.591 C 99.465 79.779 99.453 79.241 99.437 78.903 C 99.436 78.887 99.435 78.872 99.435 78.857 C 98.062 78.702 97.265 78.227 96.403 77.104 C 96.139 76.744 95.652 76.242 95.311 75.979 C 94.298 75.19 93.87 74.764 93.184 73.873 C 92.834 73.413 92.378 72.96 91.945 72.643 C 91.034 71.966 90.773 71.704 90.03 70.717 C 89.747 70.336 89.3 69.869 89.024 69.667 C 88.09 68.963 87.524 68.416 86.986 67.699 C 86.744 67.369 86.131 66.759 85.613 66.335 C 85.025 65.85 84.325 65.143 83.943 64.653 C 83.622 64.233 83.103 63.698 82.781 63.453 C 81.819 62.71 81.372 62.267 80.684 61.373 C 80.334 60.913 79.878 60.46 79.445 60.143 C 78.534 59.466 78.273 59.204 77.53 58.217 C 77.247 57.836 76.8 57.369 76.524 57.167 C 75.59 56.463 75.024 55.917 74.486 55.199 C 74.244 54.869 73.631 54.259 73.113 53.835 C 72.525 53.35 71.825 52.644 71.443 52.152 C 71.122 51.733 70.603 51.198 70.281 50.953 C 69.319 50.21 68.872 49.767 68.184 48.873 C 67.834 48.413 67.378 47.961 66.945 47.643 C 66.034 46.966 65.773 46.704 65.03 45.717 C 64.747 45.336 64.3 44.869 64.024 44.667 C 63.09 43.963 62.524 43.417 61.986 42.699 C 61.744 42.369 61.131 41.759 60.613 41.335 C 60.022 40.848 59.325 40.144 58.938 39.647 C 58.589 39.19 58.065 38.663 57.624 38.324 C 56.775 37.665 56.256 37.133 55.515 36.161 C 55.301 35.874 54.823 35.42 54.442 35.141 C 53.536 34.467 53.271 34.205 52.53 33.217 C 52.245 32.837 51.8 32.369 51.524 32.167 C 50.59 31.464 50.024 30.917 49.486 30.199 C 49.244 29.869 48.631 29.259 48.113 28.836 C 47.525 28.35 46.825 27.644 46.443 27.152 C 46.122 26.733 45.603 26.198 45.281 25.953 C 44.319 25.21 43.872 24.767 43.184 23.873 C 42.834 23.413 42.378 22.961 41.945 22.643 C 41.034 21.966 40.773 21.704 40.03 20.717 C 39.747 20.336 39.3 19.869 39.024 19.667 C 38.09 18.964 37.524 18.417 36.986 17.699 C 36.744 17.369 36.131 16.759 35.613 16.336 C 35.025 15.85 34.325 15.144 33.943 14.652 C 33.622 14.233 33.103 13.698 32.781 13.453 C 31.819 12.71 31.372 12.267 30.684 11.373 C 30.334 10.913 29.878 10.461 29.445 10.143 C 28.534 9.466 28.273 9.204 27.53 8.217 C 27.247 7.836 26.8 7.369 26.524 7.167 C 25.577 6.454 25.027 5.918 24.399 5.098 C 24.098 4.701 23.714 4.279 23.535 4.149 C 22.723 3.536 22.099 2.943 21.906 2.61 C 21.824 2.457 21.689 2.201 21.604 2.04 C 21.499 1.825 21.375 1.361 21.342 1.031 C 21.324 0.845 21.3 0.646 21.28 0.5 L 0.5 0.5 L 0.5 10.85 C 0.5 10.867 0.5 11.905 0.5 12.39 Z M 21.253 0.329 C 21.253 0.327 21.252 0.325 21.252 0.324 L 21.206 0.1 Z M 78.9 99.627 C 78.9 99.634 78.9 99.642 78.9 99.65 Z M 81.553 0.375 L 81.058 0.444 L 80.927 -0.5 L 100.5 -0.5 L 100.5 9.243 C 100.5 13.604 100.497 15.92 100.474 17.149 C 100.463 17.769 100.445 18.137 100.418 18.347 C 100.402 18.469 100.37 18.602 100.333 18.681 C 100.261 18.836 100.031 18.971 99.925 19.011 C 98.843 19.17 97.646 18.555 96.696 17.32 C 96.355 16.861 95.924 16.442 95.332 15.999 C 94.809 15.601 94.152 14.985 93.886 14.639 C 93.188 13.719 92.772 13.292 91.937 12.643 C 91.442 12.254 90.835 11.648 90.519 11.228 C 89.978 10.495 89.597 10.121 88.764 9.498 C 88.412 9.231 87.84 8.646 87.502 8.208 C 86.872 7.382 86.502 7.019 85.618 6.354 C 85.201 6.036 84.65 5.457 84.231 4.895 C 83.878 4.419 83.407 3.911 83.132 3.714 C 82.622 3.334 82.128 2.888 81.787 2.515 C 81.613 2.324 81.455 2.125 81.356 1.966 C 81.248 1.792 81.191 1.487 81.207 1.262 C 81.201 1.307 81.18 1.263 81.159 1.131 C 81.131 0.961 81.06 0.456 81.06 0.456 C 81.059 0.453 81.306 0.414 81.553 0.375 Z M 82.048 0.306 C 82.049 0.315 82.051 0.327 82.053 0.343 L 82.048 0.306 Z M 82.076 0.5 C 82.099 0.662 82.13 0.876 82.145 0.969 C 82.174 1.151 82.173 1.271 82.169 1.408 C 82.179 1.406 82.152 1.352 82.207 1.44 C 82.275 1.55 82.375 1.676 82.525 1.841 C 82.834 2.179 83.255 2.561 83.727 2.91 C 84.07 3.168 84.644 3.779 85.033 4.298 C 85.414 4.814 85.865 5.292 86.22 5.556 C 87.154 6.263 87.62 6.722 88.296 7.6 C 88.594 7.992 89.07 8.481 89.364 8.698 C 90.247 9.364 90.73 9.84 91.321 10.631 C 91.589 10.996 92.102 11.506 92.553 11.855 C 93.438 12.548 93.944 13.067 94.682 14.034 C 94.891 14.317 95.451 14.837 95.935 15.201 C 96.574 15.685 97.105 16.203 97.496 16.721 C 98.186 17.676 98.803 18.121 99.44 18.081 C 99.454 17.893 99.466 17.599 99.474 17.131 C 99.498 15.91 99.5 13.604 99.5 9.243 L 99.5 0.5 Z M -0.5 80.909 L 0.081 81.004 C 0.081 81.004 0.357 81.049 0.357 81.049 C 0.507 81.074 0.809 81.122 1.03 81.158 C 1.252 81.194 1.487 81.234 1.55 81.246 C 2.01 81.368 2.779 81.958 3.269 82.573 C 4.002 83.512 4.244 83.754 5.043 84.342 C 5.528 84.704 6.084 85.255 6.478 85.765 C 7.12 86.607 7.476 86.958 8.391 87.661 C 8.767 87.954 9.376 88.579 9.735 89.042 C 10.075 89.486 10.697 90.111 11.248 90.563 C 11.802 91.019 12.498 91.717 12.788 92.102 C 13.272 92.758 13.736 93.203 14.624 93.867 C 14.96 94.123 15.507 94.69 15.828 95.118 C 16.474 95.988 16.759 96.278 17.485 96.806 C 17.997 97.192 18.496 97.824 18.781 98.391 C 19.074 98.972 19.164 99.722 18.973 100.166 C 18.765 100.3 18.333 100.433 17.9 100.445 C 17.472 100.456 16.845 100.466 16.042 100.475 C 14.437 100.491 12.118 100.5 9.244 100.5 L -0.5 100.5 Z M 0.5 99.5 L 9.244 99.5 C 12.116 99.5 14.43 99.491 16.032 99.475 C 16.832 99.466 17.45 99.457 17.873 99.445 C 18.29 99.433 18.107 99.45 18.164 99.468 C 18.135 99.333 18.124 99.309 17.888 98.84 C 17.645 98.358 17.305 97.901 16.895 97.612 C 16.107 97.032 15.718 96.638 15.026 95.716 C 14.745 95.336 14.3 94.869 14.024 94.667 C 13.09 93.963 12.524 93.416 11.986 92.699 C 11.744 92.369 11.131 91.759 10.613 91.335 C 10.025 90.85 9.325 90.144 8.943 89.652 C 8.622 89.233 8.103 88.698 7.781 88.453 C 6.819 87.71 6.372 87.267 5.684 86.373 C 5.335 85.914 4.878 85.46 4.449 85.146 C 3.594 84.51 3.256 84.176 2.481 83.189 C 2.072 82.656 1.598 82.248 1.35 82.226 C 1.303 82.216 1.089 82.18 0.871 82.146 C 0.728 82.122 0.548 82.093 0.398 82.069 L 0.5 82.085 Z" style="fill: none;"/>
      <path id="path1" d="M 100 78.4 L 100 18.526 C 100 18.526 81.526 0.234 81.508 0.075 C 81.504 0.034 21.725 0 21.725 0 M 0.075 81.508 C 0.116 81.512 18.868 99.386 18.547 99.905 C 18.51 99.965 78.425 100 78.425 100 L 0 21.702" fill="#64646c" fill-rule="evenodd" style=""/>
      <path d="M 21.768 0.475 L 21.27 0.52 L 21.178 -0.5 L 51.612 -0.5 C 59.832 -0.5 67.305 -0.491 72.724 -0.478 C 75.434 -0.471 77.631 -0.463 79.15 -0.454 C 79.91 -0.45 80.501 -0.445 80.903 -0.44 C 81.104 -0.438 81.26 -0.435 81.364 -0.432 C 81.418 -0.431 81.463 -0.43 81.493 -0.428 C 81.51 -0.427 81.532 -0.426 81.546 -0.425 C 81.557 -0.424 81.583 -0.42 81.599 -0.417 C 81.615 -0.414 81.657 -0.403 81.683 -0.393 C 81.707 -0.385 81.767 -0.355 81.801 -0.33 C 81.863 -0.286 81.957 -0.106 82.005 0.019 C 82.022 0.17 82.097 0.688 82.143 0.969 C 82.173 1.151 82.173 1.271 82.169 1.409 C 82.178 1.408 82.152 1.352 82.207 1.44 C 82.275 1.55 82.375 1.676 82.525 1.841 C 82.834 2.179 83.255 2.561 83.727 2.91 C 84.07 3.168 84.645 3.781 85.035 4.302 C 85.459 4.875 85.876 5.307 86.375 5.685 C 87.272 6.376 87.734 6.842 88.426 7.756 C 88.654 8.063 89.073 8.484 89.366 8.7 C 90.248 9.365 90.73 9.842 91.321 10.631 C 91.589 10.996 92.102 11.506 92.553 11.855 C 93.438 12.548 93.945 13.068 94.682 14.035 C 94.892 14.317 95.451 14.837 95.935 15.201 C 96.579 15.69 97.103 16.202 97.5 16.728 C 98.274 17.795 98.609 18.025 99.487 18.013 L 100.5 18.038 L 100.5 78.938 L 99.964 78.899 L 99.425 78.86 C 98.159 78.743 97.257 78.222 96.403 77.104 C 96.139 76.744 95.652 76.242 95.311 75.979 C 94.298 75.19 93.87 74.764 93.184 73.873 C 92.834 73.413 92.378 72.961 91.945 72.643 C 91.034 71.966 90.773 71.704 90.03 70.717 C 89.747 70.336 89.299 69.869 89.024 69.667 C 88.09 68.963 87.524 68.416 86.986 67.699 C 86.744 67.369 86.13 66.759 85.612 66.335 C 85.025 65.849 84.324 65.143 83.943 64.652 C 83.622 64.233 83.103 63.698 82.781 63.453 C 81.819 62.71 81.372 62.267 80.684 61.373 C 80.334 60.913 79.878 60.461 79.445 60.143 C 78.534 59.466 78.273 59.204 77.53 58.217 C 77.247 57.836 76.799 57.369 76.524 57.167 C 75.59 56.463 75.024 55.916 74.486 55.199 C 74.244 54.869 73.63 54.259 73.112 53.835 C 72.525 53.349 71.825 52.644 71.443 52.152 C 71.122 51.733 70.603 51.198 70.281 50.953 C 69.318 50.21 68.872 49.767 68.184 48.873 C 67.834 48.413 67.378 47.961 66.945 47.643 C 66.034 46.966 65.773 46.704 65.03 45.717 C 64.747 45.336 64.299 44.869 64.024 44.667 C 63.09 43.963 62.524 43.416 61.986 42.699 C 61.744 42.369 61.13 41.759 60.612 41.335 C 60.022 40.847 59.324 40.144 58.938 39.646 C 58.589 39.19 58.065 38.663 57.624 38.325 C 56.775 37.665 56.256 37.133 55.515 36.161 C 55.301 35.874 54.822 35.42 54.442 35.141 C 53.535 34.466 53.271 34.205 52.53 33.217 C 52.245 32.837 51.799 32.369 51.524 32.167 C 50.59 31.463 50.024 30.916 49.486 30.199 C 49.244 29.869 48.63 29.259 48.112 28.835 C 47.525 28.349 46.825 27.644 46.443 27.152 C 46.122 26.733 45.603 26.198 45.281 25.953 C 44.318 25.21 43.872 24.767 43.184 23.873 C 42.834 23.413 42.378 22.961 41.945 22.643 C 41.034 21.966 40.773 21.704 40.03 20.717 C 39.747 20.336 39.299 19.869 39.024 19.667 C 38.09 18.963 37.524 18.416 36.986 17.699 C 36.744 17.369 36.13 16.759 35.612 16.335 C 35.025 15.849 34.325 15.144 33.943 14.652 C 33.622 14.233 33.103 13.698 32.781 13.453 C 31.818 12.71 31.372 12.267 30.684 11.373 C 30.334 10.913 29.878 10.461 29.445 10.143 C 28.534 9.466 28.273 9.204 27.53 8.217 C 27.247 7.836 26.799 7.369 26.524 7.167 C 25.577 6.453 25.027 5.918 24.399 5.098 C 24.098 4.701 23.714 4.279 23.535 4.149 C 22.842 3.626 21.9 2.752 21.9 2.471 C 21.9 2.539 21.888 2.52 21.798 2.398 C 21.666 2.2 21.533 1.898 21.45 1.588 C 21.369 1.287 21.285 0.605 21.285 0.605 C 21.283 0.593 21.525 0.534 21.768 0.475 Z M 22.262 0.43 C 22.29 0.63 22.362 1.127 22.416 1.329 C 22.482 1.575 22.535 1.718 22.614 1.818 C 22.738 1.996 22.9 2.305 22.9 2.471 C 22.9 2.378 23.476 2.854 24.137 3.351 C 24.382 3.541 24.864 4.059 25.195 4.492 C 25.773 5.256 26.225 5.695 27.124 6.367 C 27.46 6.623 28.007 7.19 28.33 7.617 C 29.027 8.552 29.186 8.712 30.039 9.339 C 30.528 9.703 31.082 10.253 31.478 10.765 C 32.12 11.607 32.475 11.958 33.391 12.661 C 33.767 12.954 34.376 13.579 34.735 14.042 C 35.075 14.486 35.697 15.111 36.248 15.563 C 36.802 16.019 37.498 16.717 37.788 17.101 C 38.272 17.757 38.736 18.203 39.624 18.867 C 39.96 19.123 40.507 19.69 40.83 20.117 C 41.527 21.052 41.686 21.212 42.539 21.839 C 43.028 22.203 43.582 22.753 43.978 23.265 C 44.62 24.107 44.975 24.458 45.891 25.161 C 46.267 25.454 46.876 26.079 47.235 26.542 C 47.575 26.986 48.197 27.611 48.748 28.063 C 49.302 28.519 49.998 29.217 50.288 29.601 C 50.772 30.257 51.236 30.703 52.124 31.367 C 52.46 31.623 53.009 32.189 53.33 32.617 C 54.029 33.549 54.187 33.712 55.036 34.337 C 55.465 34.656 56.043 35.21 56.311 35.555 C 57.012 36.481 57.439 36.921 58.236 37.533 C 58.725 37.915 59.339 38.532 59.73 39.036 C 60.075 39.486 60.694 40.109 61.248 40.563 C 61.802 41.019 62.498 41.717 62.788 42.101 C 63.272 42.757 63.736 43.203 64.624 43.867 C 64.96 44.123 65.507 44.69 65.83 45.117 C 66.527 46.052 66.686 46.212 67.539 46.839 C 68.028 47.203 68.582 47.753 68.978 48.265 C 69.62 49.107 69.975 49.458 70.891 50.161 C 71.267 50.454 71.876 51.079 72.235 51.542 C 72.575 51.986 73.197 52.611 73.748 53.063 C 74.302 53.519 74.998 54.217 75.288 54.601 C 75.772 55.257 76.236 55.703 77.124 56.367 C 77.46 56.623 78.007 57.19 78.33 57.617 C 79.027 58.552 79.186 58.712 80.039 59.339 C 80.528 59.703 81.082 60.253 81.478 60.765 C 82.12 61.607 82.475 61.958 83.391 62.661 C 83.767 62.954 84.376 63.579 84.735 64.041 C 85.075 64.485 85.697 65.111 86.248 65.563 C 86.802 66.019 87.498 66.717 87.788 67.101 C 88.272 67.757 88.736 68.203 89.624 68.867 C 89.96 69.123 90.507 69.69 90.83 70.117 C 91.527 71.052 91.686 71.212 92.539 71.839 C 93.028 72.203 93.582 72.753 93.978 73.265 C 94.618 74.104 94.958 74.44 95.925 75.19 C 96.318 75.499 96.899 76.098 97.206 76.508 C 97.911 77.492 98.447 77.813 99.497 77.862 L 99.5 77.863 L 99.5 19.014 L 99.463 19.013 C 98.333 18.949 97.608 18.518 96.698 17.326 C 96.353 16.859 95.929 16.447 95.333 15.999 C 94.809 15.601 94.152 14.985 93.886 14.639 C 93.188 13.719 92.772 13.292 91.937 12.643 C 91.442 12.254 90.835 11.648 90.519 11.229 C 89.978 10.497 89.597 10.121 88.766 9.5 C 88.418 9.236 87.9 8.717 87.626 8.357 C 86.979 7.494 86.612 7.124 85.767 6.479 C 85.212 6.051 84.699 5.521 84.233 4.899 C 83.878 4.42 83.408 3.912 83.133 3.714 C 82.623 3.335 82.128 2.888 81.787 2.515 C 81.613 2.324 81.455 2.125 81.356 1.966 C 81.248 1.792 81.192 1.485 81.208 1.26 C 81.201 1.306 81.179 1.263 81.157 1.131 C 81.132 0.98 81.099 0.761 81.07 0.562 C 81.015 0.562 80.956 0.561 80.89 0.56 C 80.491 0.555 79.903 0.55 79.144 0.546 C 77.626 0.537 75.431 0.529 72.722 0.522 C 67.304 0.509 59.831 0.5 51.612 0.5 L 22.272 0.5 L 22.266 0.43 Z M 22.251 0.345 C 22.251 0.345 22.251 0.345 22.251 0.345 C 22.251 0.345 22.251 0.345 22.251 0.345 Z M 0 51.601 L -0.5 51.601 L -0.5 21.146 L 0.053 21.205 L 0.577 21.261 C 2.138 21.446 2.852 21.857 3.824 23.132 C 4.092 23.499 4.599 24.003 5.053 24.355 C 5.938 25.049 6.444 25.566 7.184 26.537 C 7.4 26.826 7.93 27.319 8.399 27.666 C 9.079 28.175 9.526 28.622 10.037 29.305 C 10.459 29.876 10.877 30.307 11.375 30.685 C 12.272 31.376 12.734 31.842 13.426 32.756 C 13.654 33.063 14.073 33.484 14.366 33.7 C 15.248 34.365 15.73 34.842 16.321 35.631 C 16.589 35.996 17.103 36.506 17.553 36.855 C 18.438 37.549 18.944 38.066 19.684 39.037 C 19.9 39.326 20.43 39.819 20.899 40.166 C 21.578 40.674 22.027 41.123 22.534 41.802 C 22.914 42.315 23.365 42.792 23.72 43.056 C 24.654 43.763 25.12 44.222 25.796 45.1 C 26.094 45.492 26.57 45.982 26.864 46.198 C 27.748 46.865 28.23 47.341 28.821 48.131 C 29.089 48.496 29.603 49.006 30.053 49.355 C 30.938 50.049 31.444 50.566 32.184 51.537 C 32.4 51.826 32.929 52.319 33.399 52.666 C 34.078 53.174 34.527 53.623 35.034 54.302 C 35.414 54.815 35.865 55.292 36.22 55.556 C 37.154 56.263 37.62 56.722 38.296 57.6 C 38.594 57.992 39.07 58.482 39.364 58.698 C 40.248 59.365 40.73 59.841 41.321 60.631 C 41.589 60.996 42.103 61.506 42.553 61.855 C 43.438 62.549 43.944 63.066 44.684 64.037 C 44.899 64.326 45.43 64.818 45.9 65.166 C 46.578 65.674 47.027 66.123 47.534 66.802 C 47.914 67.315 48.365 67.792 48.72 68.056 C 49.656 68.764 50.12 69.222 50.802 70.108 C 51.121 70.527 51.623 71.029 52.022 71.329 C 52.863 71.969 53.236 72.346 53.921 73.249 C 54.144 73.549 54.727 74.106 55.226 74.498 C 55.894 75.025 56.449 75.584 56.935 76.217 C 57.402 76.832 57.789 77.215 58.397 77.665 C 59.078 78.174 59.526 78.622 60.034 79.302 C 60.414 79.815 60.865 80.292 61.22 80.556 C 62.154 81.263 62.62 81.722 63.296 82.6 C 63.594 82.992 64.07 83.482 64.364 83.698 C 65.248 84.365 65.73 84.841 66.321 85.632 C 66.589 85.996 67.103 86.506 67.553 86.855 C 68.438 87.549 68.943 88.066 69.684 89.037 C 69.9 89.326 70.43 89.819 70.899 90.166 C 71.579 90.675 72.026 91.122 72.537 91.805 C 72.959 92.376 73.377 92.807 73.875 93.185 C 74.769 93.874 75.231 94.34 75.922 95.249 C 76.147 95.551 76.675 96.07 77.103 96.409 C 78.298 97.384 78.712 98.089 78.864 99.375 L 78.978 100.5 L 48.457 100.5 C 38.98 100.5 31.493 100.491 26.379 100.475 C 23.822 100.467 21.858 100.457 20.535 100.445 C 19.873 100.439 19.37 100.433 19.034 100.426 C 18.865 100.423 18.734 100.419 18.647 100.416 C 18.602 100.414 18.559 100.411 18.531 100.409 C 18.513 100.407 18.48 100.403 18.459 100.399 C 18.439 100.395 18.382 100.38 18.346 100.364 C 18.31 100.348 18.209 100.282 18.161 100.223 C 18.121 100.174 18.058 100.037 18.049 99.956 C 18.041 99.87 18.092 99.711 18.122 99.642 C 18.25 99.567 18.124 99.309 17.888 98.84 C 17.645 98.358 17.305 97.901 16.895 97.612 C 16.107 97.032 15.717 96.638 15.026 95.716 C 14.745 95.335 14.299 94.869 14.024 94.667 C 13.089 93.963 12.524 93.416 11.986 92.699 C 11.744 92.369 11.13 91.759 10.612 91.335 C 10.025 90.849 9.325 90.144 8.943 89.652 C 8.622 89.233 8.103 88.698 7.781 88.453 C 6.818 87.71 6.372 87.267 5.684 86.373 C 5.335 85.914 4.878 85.46 4.449 85.146 C 3.594 84.51 3.256 84.176 2.482 83.19 C 2.215 82.847 1.872 82.506 1.703 82.419 C 1.333 82.204 1.384 82.222 0.791 82.134 C 0.58 82.101 0.324 82.058 0.224 82.039 C 0.138 82.022 0.051 82.008 0.026 82.006 C -0.101 81.993 -0.286 81.863 -0.33 81.801 C -0.355 81.767 -0.385 81.707 -0.394 81.683 C -0.403 81.657 -0.414 81.615 -0.417 81.599 C -0.42 81.583 -0.424 81.557 -0.425 81.546 C -0.426 81.532 -0.427 81.51 -0.428 81.493 C -0.43 81.463 -0.431 81.418 -0.432 81.364 C -0.435 81.259 -0.438 81.104 -0.44 80.902 C -0.445 80.501 -0.45 79.909 -0.454 79.149 C -0.463 77.629 -0.471 75.432 -0.478 72.721 C -0.485 70.011 -0.49 66.786 -0.494 63.212 C -0.496 61.424 -0.497 59.55 -0.498 57.608 C -0.499 56.637 -0.499 55.649 -0.5 54.647 C -0.5 54.146 -0.5 53.641 -0.5 53.134 C -0.5 52.626 -0.5 51.601 -0.5 51.601 C -0.5 51.601 -0.25 51.601 0 51.601 Z M 0.5 53.134 C 0.5 53.641 0.5 54.146 0.5 54.647 C 0.501 55.649 0.501 56.636 0.502 57.607 C 0.503 59.549 0.504 61.424 0.506 63.211 C 0.51 66.785 0.515 70.009 0.522 72.719 C 0.529 75.429 0.537 77.624 0.546 79.143 C 0.55 79.902 0.555 80.491 0.56 80.89 C 0.561 80.961 0.562 81.025 0.563 81.083 C 0.672 81.102 0.816 81.125 0.947 81.146 C 1.622 81.254 1.738 81.294 2.197 81.549 C 2.467 81.712 2.957 82.179 3.268 82.572 C 4.002 83.512 4.244 83.754 5.043 84.342 C 5.528 84.704 6.083 85.254 6.478 85.765 C 7.12 86.607 7.475 86.958 8.391 87.661 C 8.767 87.954 9.376 88.579 9.735 89.042 C 10.075 89.486 10.697 90.111 11.248 90.563 C 11.802 91.019 12.498 91.717 12.788 92.101 C 13.272 92.757 13.736 93.203 14.624 93.867 C 14.96 94.123 15.507 94.69 15.828 95.118 C 16.474 95.988 16.759 96.278 17.485 96.806 C 17.997 97.192 18.496 97.824 18.781 98.391 C 18.943 98.713 19.043 99.084 19.068 99.427 C 19.4 99.433 19.893 99.439 20.544 99.445 C 21.865 99.457 23.826 99.467 26.382 99.475 C 31.495 99.491 38.981 99.5 48.457 99.5 L 77.872 99.5 L 77.87 99.475 C 77.786 98.397 77.558 98.032 76.479 97.191 C 76.011 96.816 75.397 96.209 75.124 95.851 C 74.477 94.993 74.109 94.623 73.267 93.979 C 72.713 93.552 72.199 93.022 71.735 92.401 C 71.272 91.774 70.927 91.429 70.303 90.968 C 69.79 90.585 69.16 89.994 68.888 89.643 C 68.189 88.719 67.773 88.293 66.937 87.643 C 66.442 87.254 65.835 86.648 65.519 86.229 C 64.978 85.496 64.597 85.121 63.764 84.498 C 63.412 84.231 62.84 83.646 62.502 83.208 C 61.872 82.382 61.502 82.019 60.618 81.354 C 60.201 81.036 59.65 80.457 59.232 79.899 C 58.772 79.274 58.426 78.928 57.801 78.467 C 57.139 77.972 56.654 77.492 56.141 76.825 C 55.697 76.24 55.23 75.771 54.608 75.284 C 54.072 74.86 53.398 74.211 53.123 73.851 C 52.481 72.998 52.205 72.719 51.418 72.125 C 50.967 71.781 50.371 71.185 50.008 70.717 C 49.372 69.883 49.004 69.52 48.118 68.854 C 47.701 68.536 47.15 67.957 46.732 67.399 C 46.272 66.775 45.926 66.428 45.303 65.968 C 44.791 65.585 44.161 64.994 43.888 64.643 C 43.189 63.719 42.772 63.293 41.937 62.643 C 41.442 62.254 40.835 61.648 40.519 61.229 C 39.978 60.496 39.597 60.121 38.764 59.498 C 38.412 59.231 37.84 58.646 37.502 58.208 C 36.872 57.382 36.502 57.019 35.618 56.354 C 35.201 56.036 34.65 55.457 34.232 54.899 C 33.772 54.275 33.426 53.928 32.803 53.468 C 32.289 53.085 31.66 52.494 31.388 52.143 C 30.689 51.219 30.272 50.793 29.437 50.143 C 28.942 49.754 28.335 49.148 28.019 48.729 C 27.478 47.996 27.097 47.621 26.264 46.998 C 25.912 46.731 25.34 46.146 25.002 45.708 C 24.372 44.882 24.002 44.519 23.118 43.854 C 22.701 43.536 22.15 42.957 21.732 42.399 C 21.272 41.775 20.926 41.428 20.303 40.968 C 19.79 40.585 19.16 39.994 18.888 39.643 C 18.189 38.719 17.773 38.293 16.937 37.643 C 16.442 37.254 15.835 36.648 15.519 36.229 C 14.978 35.496 14.596 35.121 13.766 34.5 C 13.418 34.236 12.9 33.717 12.626 33.357 C 11.979 32.494 11.612 32.124 10.767 31.479 C 10.214 31.052 9.699 30.522 9.235 29.901 C 8.772 29.274 8.427 28.929 7.803 28.468 C 7.29 28.085 6.66 27.494 6.388 27.143 C 5.689 26.219 5.272 25.793 4.437 25.143 C 3.939 24.751 3.338 24.151 3.02 23.728 C 2.2 22.587 1.836 22.376 0.473 22.255 L -0.053 22.199 L 0.5 22.258 L 0.5 51.601 C 0.5 51.61 0.5 52.628 0.5 53.134 Z" style="fill: none;"/>
    </pattern>
  </defs>
  <text style="fill: rgb(51, 51, 51); font-family: &quot;Allerta Stencil&quot;; font-size: 40px; letter-spacing: 1.7px; white-space: pre;"><textPath xlink:href="#text-path-0">The-Box!</textPath></text>
  <g id="door3" transform="matrix(1, 0, 0, 1, 175, 0)">
    <path style="fill: rgb(79, 85, 79); stroke: rgb(0, 0, 0); stroke-width: 3px;" d="M 0 0 L 0 100 L 35 120 L 35 180 L 0 200 L 0 300 L 150 300 L 150 200 L 185 180 L 185 120 L 150 100 L 150 0 L 0 0"></path>
    <rect width="35" height="300" style="fill-rule: nonzero; paint-order: fill; fill: rgb(28, 30, 24);" x="95"></rect>
    <rect y="35" width="150" height="25" style="stroke: rgb(0, 0, 0); fill: url(#pattern-0-1);"></rect>
    <rect width="150" height="25" style="stroke: rgb(0, 0, 0); fill: url(#pattern-0-1);" y="240" bx:origin="0.5 -7.5"></rect>
  </g>
  <g id="door4" transform="matrix(-1, 0, 0, -1, 660, 300)">
    <path style="fill: rgb(79, 85, 79); stroke: rgb(0, 0, 0); stroke-width: 3px;" d="M 0 0 L 0 100 L 35 120 L 35 180 L 0 200 L 0 300 L 150 300 L 150 200 L 185 180 L 185 120 L 150 100 L 150 0 L 0 0"></path>
    <rect width="35" height="300" style="fill-rule: nonzero; paint-order: fill; fill: rgb(28, 30, 24);" x="95"></rect>
    <rect y="35" width="150" height="25" style="stroke: rgb(0, 0, 0); fill: url(#pattern-0-1);"></rect>
    <rect width="150" height="25" style="stroke: rgb(0, 0, 0); fill: url(#pattern-0-1);" y="240" bx:origin="0.5 -7.5"></rect>
  </g>
  <g id="door2" transform="matrix(1, 0, 0, 1, 70, 0)">
    <path style="fill: rgb(79, 85, 79); stroke: rgb(0, 0, 0); stroke-width: 3px;" d="M 0 0 L 0 100 L 35 120 L 35 180 L 0 200 L 0 300 L 150 300 L 150 200 L 185 180 L 185 120 L 150 100 L 150 0 L 0 0"></path>
    <rect width="35" height="300" style="fill-rule: nonzero; paint-order: fill; fill: rgb(28, 30, 24);" x="95"></rect>
    <rect y="35" width="150" height="25" style="stroke: rgb(0, 0, 0); fill: url(#pattern-0-1);"></rect>
    <rect width="150" height="25" style="stroke: rgb(0, 0, 0); fill: url(#pattern-0-1);" y="240" bx:origin="0.5 -7.5"></rect>
  </g>
  <g id="door5" transform="matrix(-1, 0, 0, -1, 555, 300)">
    <path style="fill: rgb(79, 85, 79); stroke: rgb(0, 0, 0); stroke-width: 3px;" d="M 0 0 L 0 100 L 35 120 L 35 180 L 0 200 L 0 300 L 150 300 L 150 200 L 185 180 L 185 120 L 150 100 L 150 0 L 0 0"></path>
    <rect width="35" height="300" style="fill-rule: nonzero; paint-order: fill; fill: rgb(28, 30, 24);" x="95"></rect>
    <rect y="35" width="150" height="25" style="stroke: rgb(0, 0, 0); fill: url(#pattern-0-1);"></rect>
    <rect width="150" height="25" style="stroke: rgb(0, 0, 0); fill: url(#pattern-0-1);" y="240" bx:origin="0.5 -7.5"></rect>
  </g>
  <g id="door1" transform="matrix(1, 0, 0, 1, -35, 0)">
    <path style="fill: rgb(79, 85, 79); stroke: rgb(0, 0, 0); stroke-width: 3px;" d="M 0 0 L 0 100 L 35 120 L 35 180 L 0 200 L 0 300 L 150 300 L 150 200 L 185 180 L 185 120 L 150 100 L 150 0 L 0 0"></path>
    <rect width="35" height="300" style="fill-rule: nonzero; paint-order: fill; fill: rgb(28, 30, 24);" x="95"></rect>
    <rect y="35" width="150" height="25" style="stroke: rgb(0, 0, 0); fill: url(#pattern-0-1);"></rect>
    <rect width="150" height="25" style="stroke: rgb(0, 0, 0); fill: url(#pattern-0-1);" y="240" bx:origin="0.5 -7.5"></rect>
  </g>
  <g id="door6" transform="matrix(-1, 0, 0, -1, 450, 300)">
    <path style="fill: rgb(79, 85, 79); stroke: rgb(0, 0, 0); stroke-width: 3px;" d="M 0 0 L 0 100 L 35 120 L 35 180 L 0 200 L 0 300 L 150 300 L 150 200 L 185 180 L 185 120 L 150 100 L 150 0 L 0 0"></path>
    <rect width="35" height="300" style="fill-rule: nonzero; paint-order: fill; fill: rgb(28, 30, 24);" x="95"></rect>
    <rect y="35" width="150" height="25" style="stroke: rgb(0, 0, 0); fill: url(#pattern-0-1);"></rect>
    <rect width="150" height="25" style="stroke: rgb(0, 0, 0); fill: url(#pattern-0-1);" y="240" bx:origin="0.5 -7.5"></rect>
  </g>
  </svg>
